<?xml version="1.0" encoding="UTF-8"?>
<svg id="Layer_3" xmlns="http://www.w3.org/2000/svg" version="1.1" viewBox="0 0 662 989">
  <!-- Generator: Adobe Illustrator 29.5.0, SVG Export Plug-In . SVG Version: 2.1.0 Build 137)  -->
  <defs>
    <style>
      .st0 {
        fill: none;
        stroke: #000;
        stroke-miterlimit: 10;
        stroke-width: 6px;
      }
    </style>
  </defs>
  <path class="st0" d="M388.9,93c-31.3,1.9-45.5-2.1-54.6,49.7,12.9-2.6,63.4-9.3,105.7,0-4.9-51.1-33.4-49.7-51.1-49.7Z"/>
  <path class="st0" d="M334.3,142.7s-57.7,14.1-61.6,32.8c0,15.8,57.3,20.6,57.3,20.6"/>
  <path class="st0" d="M273.7,173.5c7.7-2.6,40.9-4.8,57.2-6,45.3-3.3,125.8-13.4,168.7,8.6"/>
  <path class="st0" d="M425.8,162.4c0,1.1-.8,10,4,15.7,14.7-8,22.4,17.1.6,32.7-5.6,32.2-19.1,54.1-48.1,58.4-41.4-2.1-56.3-22.3-51.3-101.7"/>
  <path class="st0" d="M343.4,179.5c7.3-1.7,11.8-.6,15.9,1.7"/>
  <path class="st0" d="M387.6,181.2c8.3-2.3,12.4-2.6,20.3,0"/>
  <line class="st0" x1="351.3" y1="193.9" x2="351.3" y2="198.3"/>
  <line class="st0" x1="395.9" y1="193.9" x2="395.9" y2="198.3"/>
  <path class="st0" d="M366.8,193.9c-4,17.9-10.7,31.5,6.3,30"/>
  <path class="st0" d="M359.3,239.2c11.3,3.8,30.5,3.1,36.6-8.6"/>
  <path class="st0" d="M442.5,195.5s56-4,57.1-19.3-59.7-33.4-59.7-33.4"/>
  <path class="st0" d="M435.8,265.1"/>
  <path class="st0" d="M502.5,289"/>
  <path class="st0" d="M502.5,289"/>
  <path class="st0" d="M306.4,293.6"/>
  <path class="st0" d="M583.4,431.8c-8.5,41.6-45.8,81.5-68.1,93.9-2.7-14.4-19.5-37.6-27-39.5.2-4.1,31.5-41.6,34.9-58.5"/>
  <path class="st0" d="M442.9,259.1"/>
  <path class="st0" d="M278.4,423.5c-16.3-5.4-23-2.4-23-2.4,10.7-70.8,24.3-156.4,93.3-151.9,5.4.4,11.3-.6,11-4.1"/>
  <path class="st0" d="M222.4,425.9c-2.7,10.9-4.4,14.8-12.1,14.3s-8.7-9.4-.6-26.8c-3.6-6.8-27.1,1.2-32.8,8.3-3.9,9.7-2.9,44.6,3.7,50s8.5,9.8,21.1,9.7l-1-14.3-11.8.6"/>
  <path class="st0" d="M176.8,421.8c-3.9,9.7-1.2,43.1,3.7,50s14.5,9.5,19.1,9.7"/>
  <path class="st0" d="M187.3,434.7s13.3-4.3,18.7-2.4"/>
  <path class="st0" d="M217.9,436.6c5.2,4.1,6.4,9.6,2.3,17,1.4,4.6,3.9,8.7-.3,12s-14.6,1.3-19.4,1.5"/>
  <path class="st0" d="M189,449.4s23.5-2.1,31.2,4.2"/>
  <path class="st0" d="M209.6,413.5"/>
  <path class="st0" d="M220.2,482.6"/>
  <path class="st0" d="M220.2,482.6s30.3,2.2,20-49.7c-11.9-34.9-30.5-19.5-30.5-19.5"/>
  <path class="st0" d="M236.8,424.7s13.6,0,18.6-3.7"/>
  <path class="st0" d="M230.5,479.9s49.5,22.1,76.9-16.6c-10.2-14.7-10.7-74.4-4-122"/>
  <path class="st0" d="M482.2,373.4l41.1,54.3s11.7-3,20.3-3"/>
  <path class="st0" d="M423.9,234.4c-1.6,4.2,2.3,18.4,11.8,19.5,91.5,11.2,147.9,147.2,147.7,177.8"/>
  <path class="st0" d="M488.4,486.2c-18.6,1.6-25.2,1.4-32.1,3.3s-44.8,21.8-38.5,30.8c6.4,9.2,8.7,1.9,39.7-14.7,4.1-2.2-43.7,19.6-34.7,32.7s42.7-21.8,42.7-21.8c0,0-38.1,20.8-33.9,30.1s40.4-18,40.4-18c0,0-29.6,15.8-21.9,23.7s26.7-8.6,30.9-9.6,30.8-11.3,32.9-22.8"/>
  <path class="st0" d="M307.4,463.3c-.5,1.4.3,2.8,2.3,4.2,15.3,10.6,99.3,18.9,164.6,3.6,16.1-32.2,19.3-82.6,19.3-82.6"/>
  <line class="st0" x1="476.2" y1="487.2" x2="474.3" y2="471.1"/>
  <path class="st0" d="M445.7,494.3c-52.5,11.2-86.9,6.9-136.1-7.1,0,0-.6-13.6,0-19.7"/>
  <path class="st0" d="M369.6,478.9c.1,0-2.1,20.5-2.1,20.5l24.1,1.3v-21.1l-22-.7Z"/>
  <path class="st0" d="M309.7,487.2c-19.5,24.7-35.2,160.3-33.1,173.4,29.8,29.8,197.7,25.6,231.1,3.7,0-25.1-5.2-82.1-14.1-126.7"/>
  <path class="st0" d="M204.3,201.1"/>
  <path class="st0" d="M188.3,203.5"/>
  <line class="st0" x1="190.5" y1="202.3" x2="212.7" y2="411.6"/>
  <line class="st0" x1="194.6" y1="410.9" x2="174.5" y2="204.7"/>
  <path class="st0" d="M260.5,906.7c0-5.9-42.3-440.2-42.3-440.2"/>
  <path class="st0" d="M300.8,672.5c-1.8,10.4.4,29.7,4.2,46.4.7,51.9,11.3,129.2,15,151.6s.3,1.8.4,2.5c8.5,6,39.4,4.7,45.3-2.9,7.1-43.6,19.6-78.9,19.9-104.4.4-26.7-9.7-46.7-9.6-59,0-11.9.1-18.2.5-25"/>
  <path class="st0" d="M320.4,872.9"/>
  <path class="st0" d="M320.4,872.9s-5.5-5-9.2,0c-19.9,26.7-71.7,30.4-59.5,57.2,33,11.5,66.3-2.9,80.6-5.8s38-.7,41.5-11.2c3-9,0-36.5-2.3-41.3s-5.9-1.9-5.9-1.9"/>
  <path class="st0" d="M452.9,876.7c-2.3,2.4,29.1,3.9,39.3,0s16.8-103.4,12.7-126.7-6.4-28.8-9.5-46.1-3.2-23.5-2-33.5"/>
  <path class="st0" d="M411.5,681.8c.8,10.1,7.6,32.5,14.3,47.3-1.2,57.7,27.2,147.6,27.2,147.6l-6-.8c-2.2-.3-5.2,1.6-4.9,3.8s.3,7.1-.3,13.7c-1.4,14.2-6.5,27.3-1.3,37.4s23.5,19.9,39,19.9c13.6,0,34-10.8,35.9-23.7s-7.8-39.8-12.2-50.4-9.6-2.4-9.6-2.4"/>
  <path class="st0" d="M461.3,895.1c8.4-2.8,16.7-3.1,24.8.5"/>
  <path class="st0" d="M307.8,885.5s4.6-5.5,8.4,3.5"/>
  <path class="st0" d="M250.1,920.3"/>
  <path class="st0" d="M250.1,920.3s-6,1.3-6.5-3.4-42.1-435.5-42.1-435.5"/>
  <path class="st0" d="M348.7,269.2c11.6,17,50.5,36.7,94.2-14.1"/>
  <path class="st0" d="M445.3,163.3s3.6.6,1.1,9.3-4,8.7-4,8.7"/>
  <polygon class="st0" points="114.5 192.2 118.5 212.2 249.5 194.4 246.3 175.2 114.5 192.2"/>
  <polyline class="st0" points="123.8 211.5 125.7 224.3 130.6 228.6 128 210.8"/>
  <polyline class="st0" points="146.6 208.4 148.7 222.7 153.6 227.1 150.8 207.8"/>
  <polyline class="st0" points="209.2 200.3 211.2 215.9 216.1 220.2 213.4 199.7"/>
  <polyline class="st0" points="231.4 196.9 233.6 211.1 238.5 215.4 235.5 196.3"/>
</svg>