<?xml version="1.0" encoding="UTF-8"?>
<svg id="Layer_1" xmlns="http://www.w3.org/2000/svg" version="1.1" viewBox="0 0 662 989">
  <!-- Generator: Adobe Illustrator 29.5.0, SVG Export Plug-In . SVG Version: 2.1.0 Build 137)  -->
  <defs>
    <style>
      .st0 {
        fill: none;
        stroke: #000;
        stroke-miterlimit: 10;
        stroke-width: 6px;
      }
    </style>
  </defs>
  <path class="st0" d="M339.6,64.8c-23.2,3-61.7,24.5-69,69.7,44.8-4.6,89.8-3.9,131.3,9.1-3.4-51.2-43.8-72.2-62.3-78.8Z"/>
  <path class="st0" d="M270.6,134.5s-27.4,14.3-33.5,22.3c-.1,10.9,36.4,15.8,36.4,15.8"/>
  <path class="st0" d="M237.1,156.7c7.7-2.6,20.9-4.8,37.2-6,45.3-3.3,114.5.8,157.4,22.9"/>
  <path class="st0" d="M375.1,155.8c0,57.7-7.7,90.3-49.5,96.6-41.4-2.1-56.3-22.3-51.3-101.7"/>
  <path class="st0" d="M286.8,162.7c7.3-1.7,11.8-.6,15.9,1.7"/>
  <path class="st0" d="M331,164.4c8.3-2.3,12.4-2.6,20.3,0"/>
  <line class="st0" x1="294.8" y1="177.1" x2="294.8" y2="181.5"/>
  <line class="st0" x1="339.3" y1="177.1" x2="339.3" y2="181.5"/>
  <path class="st0" d="M310.2,177.1c-4,17.9-10.7,31.5,6.3,30"/>
  <path class="st0" d="M302.7,222.4c11.3,3.8,30.5,3.1,36.6-8.6"/>
  <path class="st0" d="M447.9,272.3c-17-14.1-44.4-15.5-52.2-30.1-2.1-13,7.2-43.6,6.2-61.6,0,0,28.2,1.2,29.9-7s-29.9-30-29.9-30"/>
  <path class="st0" d="M294.8,244.1c-5.7,10.5-47.1,28.9-45,32.7"/>
  <path class="st0" d="M401.1,161.8c.1,3.8.7,18.8.7,18.8"/>
  <path class="st0" d="M401.9,180.6"/>
  <path class="st0" d="M445.9,272.3"/>
  <path class="st0" d="M445.9,272.3"/>
  <path class="st0" d="M249.8,276.8"/>
  <path class="st0" d="M538.5,413.2c-8.5,41.6-57.5,83.2-79.8,95.6-2.7-14.4-19.5-37.6-27-39.5.2-4.1,31.5-41.6,34.9-58.5"/>
  <path class="st0" d="M221.8,406.7c-16.3-5.4-23-2.4-23-2.4,12.5-82.6,25.9-105.9,38.3-117.6s12.7-9.9,12.7-9.9c31.7,52,141.8,54.1,198.1-4.6"/>
  <path class="st0" d="M165.8,409.1c-2.7,10.9-4.4,14.8-12.1,14.3s-8.7-9.4-.6-26.8c-3.6-6.8-27.1,1.2-32.8,8.3-3.9,9.7-2.9,44.6,3.7,50s8.5,9.8,21.1,9.7l-1-14.3-11.8.6"/>
  <path class="st0" d="M120.2,405c-3.9,9.7-1.2,43.1,3.7,50s14.5,9.5,19.1,9.7"/>
  <path class="st0" d="M130.7,417.9s13.3-4.3,18.7-2.4"/>
  <path class="st0" d="M161.3,419.8c5.2,4.1,6.4,9.6,2.3,17,1.4,4.6,3.9,8.7-.3,12s-14.6,1.3-19.4,1.5"/>
  <path class="st0" d="M132.4,432.7s23.5-2.1,31.2,4.2"/>
  <path class="st0" d="M153,396.7"/>
  <path class="st0" d="M163.6,465.9"/>
  <path class="st0" d="M163.6,465.9s30.3,2.2,20-49.7c-11.9-34.9-30.5-19.5-30.5-19.5"/>
  <path class="st0" d="M180.2,408s13.6,0,18.6-3.7"/>
  <path class="st0" d="M173.9,463.2s49.5,22.1,76.9-16.6c-10.2-14.7-13.1-72.1-12.7-120.2"/>
  <path class="st0" d="M425.6,356.7l41.1,54.3s11.7-3,20.3-3"/>
  <path class="st0" d="M447.9,272.3c18.5,4.6,90.9,103.5,90.6,141"/>
  <path class="st0" d="M431.8,469.4c-18.6,1.6-25.2,1.4-32.1,3.3s-44.8,21.8-38.5,30.8,8.7,1.9,39.7-14.7c4.1-2.2-43.7,19.6-34.7,32.7s42.7-21.8,42.7-21.8c0,0-38.1,20.8-33.9,30.1s40.4-18,40.4-18c0,0-29.6,15.8-21.9,23.7s26.7-8.6,30.9-9.6,30.8-11.3,32.9-22.8"/>
  <path class="st0" d="M250.8,446.5c-.5,1.4.3,2.8,2.3,4.2,15.3,10.6,99.3,18.9,164.6,3.6,16.1-32.2,19.3-82.6,19.3-82.6"/>
  <line class="st0" x1="419.6" y1="470.4" x2="417.7" y2="454.3"/>
  <path class="st0" d="M389.1,477.5c-52.5,11.2-86.9,6.9-136.1-7.1,0,0-.6-13.6,0-19.7"/>
  <path class="st0" d="M313,462.1c.1,0-2.1,20.5-2.1,20.5l24.1,1.3v-21.1l-22-.7Z"/>
  <path class="st0" d="M253.1,470.4c-19.5,24.7-35.2,160.3-33.1,173.4,29.8,29.8,197.7,25.6,231.1,3.7,0-25.1-5.2-82.1-14.1-126.7"/>
  <polygon class="st0" points="109.7 35.7 98.4 131.2 114.2 147.4 118 187.9 134 185.5 130.7 147.4 141.1 125.8 109.7 35.7"/>
  <line class="st0" x1="115.3" y1="96.3" x2="119.3" y2="131.8"/>
  <line class="st0" x1="118" y1="187.9" x2="138" y2="394.1"/>
  <line class="st0" x1="134" y1="185.5" x2="156.1" y2="394.9"/>
  <path class="st0" d="M203.9,889.9c0-5.9-42.3-440.2-42.3-440.2"/>
  <path class="st0" d="M244.2,655.7c-1.8,10.4.4,29.7,4.2,46.4.7,51.9,11.3,129.2,15,151.6s.3,1.8.4,2.5c8.5,6,39.4,4.7,45.3-2.9,7.1-43.6,19.6-78.9,19.9-104.4s-9.7-46.7-9.6-59,.1-18.2.5-25"/>
  <path class="st0" d="M263.9,856.1"/>
  <path class="st0" d="M263.9,856.1s-5.5-5-9.2,0c-19.9,26.7-71.7,30.4-59.5,57.2,33,11.5,66.3-2.9,80.6-5.8s38-.7,41.5-11.2,0-36.5-2.3-41.3-5.9-1.9-5.9-1.9"/>
  <path class="st0" d="M396.4,859.9c-2.3,2.4,29.1,3.9,39.3,0s16.8-103.4,12.7-126.7-6.4-28.8-9.5-46.1-3.2-23.5-2-33.5"/>
  <path class="st0" d="M354.9,665c.8,10.1,7.6,32.5,14.3,47.3-1.2,57.7,27.2,147.6,27.2,147.6l-6-.8c-2.2-.3-5.2,1.6-4.9,3.8s.3,7.1-.3,13.7c-1.4,14.2-6.5,27.3-1.3,37.4s23.5,19.9,39,19.9c13.6,0,34-10.8,35.9-23.7s-7.8-39.8-12.2-50.4-9.6-2.4-9.6-2.4"/>
  <path class="st0" d="M404.7,878.3c8.4-2.8,16.7-3.1,24.8.5"/>
  <path class="st0" d="M251.2,868.7s4.6-5.5,8.4,3.5"/>
  <path class="st0" d="M193.5,903.5"/>
  <path class="st0" d="M193.5,903.5s-6,1.3-6.5-3.4-42.1-435.5-42.1-435.5"/>
</svg>